<svg width="25" height="25" viewBox="0 0 25 25" fill="none" xmlns="http://www.w3.org/2000/svg">
<path d="M8.54265 14.3159C8.42325 14.3159 8.30513 14.2914 8.19563 14.2438C7.56126 13.968 7.01787 13.5184 6.62827 12.9468C6.23867 12.3753 6.01877 11.7051 5.99399 11.0139C5.96921 10.3226 6.14056 9.63841 6.48823 9.04042C6.8359 8.44243 7.34569 7.95503 7.95869 7.63456C8.57169 7.3141 9.26287 7.17364 9.95233 7.22944C10.6418 7.28524 11.3014 7.535 11.8549 7.94987C12.4084 8.36474 12.8332 8.92778 13.0801 9.57389C13.3271 10.22 13.3862 10.9228 13.2506 11.6011C13.2184 11.7622 13.1412 11.9109 13.0281 12.03C12.6329 12.4449 12.3208 12.9316 12.1086 13.4639C12.0898 13.5108 12.0713 13.5585 12.053 13.6103C11.9757 13.8248 11.8174 14.0004 11.6121 14.0994C11.4067 14.1984 11.1708 14.213 10.9548 14.1399C10.9224 14.129 10.8894 14.1185 10.8567 14.1091L10.8548 14.1085C10.208 13.9188 9.51483 13.9653 8.89911 14.2396C8.78701 14.2899 8.66553 14.3159 8.54265 14.3159Z" fill="url(#paint0_linear_5_74)"/>
<path d="M8.45572 6.35411C8.2451 6.35394 8.04072 6.28249 7.87586 6.1514C7.71101 6.0203 7.59537 5.83727 7.54776 5.63209L7.3306 4.69652C7.30217 4.57694 7.29765 4.45292 7.3173 4.33158C7.33695 4.21025 7.38039 4.094 7.44511 3.9895C7.50984 3.88501 7.59458 3.79434 7.69446 3.7227C7.79434 3.65107 7.90739 3.59988 8.02712 3.57207C8.14685 3.54427 8.2709 3.5404 8.39212 3.56069C8.51335 3.58098 8.62938 3.62503 8.73353 3.69031C8.83768 3.75558 8.9279 3.8408 8.99901 3.94105C9.07012 4.04131 9.12071 4.15463 9.14789 4.2745L9.36567 5.20995C9.39738 5.34683 9.39779 5.4891 9.36686 5.62616C9.33593 5.76322 9.27446 5.89153 9.18704 6.00152C9.09962 6.11152 8.9885 6.20036 8.86196 6.26143C8.73542 6.3225 8.59673 6.35422 8.45622 6.35423L8.45572 6.35411Z" fill="url(#paint1_linear_5_74)"/>
<path d="M4.96033 8.8541C4.78624 8.85416 4.61565 8.80524 4.46804 8.71293L3.65287 8.20497C3.54763 8.14081 3.45615 8.05643 3.38371 7.9567C3.31127 7.85697 3.25932 7.74388 3.23085 7.62395C3.20238 7.50403 3.19796 7.37965 3.21785 7.25801C3.23773 7.13636 3.28152 7.01987 3.3467 6.91525C3.41187 6.81063 3.49713 6.71997 3.59755 6.6485C3.69797 6.57702 3.81156 6.52616 3.93176 6.49885C4.05195 6.47154 4.17636 6.46831 4.29781 6.48937C4.41926 6.51042 4.53533 6.55534 4.63931 6.62152L5.45449 7.12935C5.62665 7.23654 5.7592 7.39691 5.83205 7.58618C5.90491 7.77544 5.91409 7.9833 5.85822 8.17826C5.80235 8.37321 5.68447 8.54465 5.52243 8.66661C5.36038 8.78856 5.16301 8.85438 4.96021 8.8541H4.96033Z" fill="url(#paint2_linear_5_74)"/>
<path d="M3.3209 13.3108C3.09182 13.3108 2.87076 13.2265 2.69985 13.074C2.52893 12.9214 2.42012 12.7114 2.39414 12.4838C2.36817 12.2562 2.42684 12.027 2.55899 11.8399C2.69114 11.6527 2.88752 11.5208 3.1107 11.4692L4.04615 11.2519C4.16547 11.2241 4.28909 11.2202 4.40994 11.2403C4.53079 11.2603 4.6465 11.304 4.75048 11.3688C4.85445 11.4335 4.94465 11.5181 5.01592 11.6178C5.0872 11.7174 5.13814 11.8301 5.16586 11.9494C5.19358 12.0688 5.19752 12.1924 5.17747 12.3132C5.15741 12.4341 5.11375 12.5498 5.04898 12.6538C4.9842 12.7577 4.89958 12.8479 4.79994 12.9192C4.70031 12.9905 4.58761 13.0414 4.46829 13.0692L3.53272 13.2864C3.46328 13.3026 3.39221 13.3108 3.3209 13.3108Z" fill="url(#paint3_linear_5_74)"/>
<path d="M12.695 7.05771C12.5287 7.05758 12.3654 7.01297 12.2221 6.92849C12.0788 6.84402 11.9607 6.72276 11.88 6.57727C11.7993 6.43179 11.759 6.26738 11.7632 6.10109C11.7675 5.93479 11.8161 5.77265 11.9041 5.63147L12.4121 4.8163C12.4766 4.7117 12.5611 4.62088 12.6607 4.54904C12.7604 4.47721 12.8733 4.42577 12.9929 4.39769C13.1126 4.36961 13.2366 4.36544 13.3578 4.38542C13.479 4.40539 13.5951 4.44913 13.6994 4.5141C13.8037 4.57908 13.8941 4.66402 13.9655 4.76404C14.0369 4.86406 14.0878 4.9772 14.1153 5.09695C14.1428 5.2167 14.1464 5.34071 14.1258 5.46185C14.1053 5.58299 14.061 5.69888 13.9955 5.80286L13.4877 6.61804C13.4038 6.75267 13.2871 6.86369 13.1484 6.94062C13.0097 7.01756 12.8536 7.05786 12.695 7.05771Z" fill="url(#paint4_linear_5_74)"/>
<path d="M16.2981 21.3853H10.0543C8.84321 21.3853 7.68169 20.9042 6.8253 20.0478C5.96891 19.1914 5.48779 18.0299 5.48779 16.8188C5.48779 15.6077 5.96891 14.4461 6.8253 13.5897C7.68169 12.7334 8.84321 12.2522 10.0543 12.2522C10.2788 12.2521 10.5029 12.2684 10.725 12.301C11.2284 11.3093 11.9871 10.4698 12.923 9.86906C13.8589 9.26829 14.9381 8.92797 16.0493 8.88318C17.1606 8.8384 18.2636 9.09076 19.2448 9.61427C20.226 10.1378 21.0499 10.9135 21.6315 11.8614C22.213 12.8094 22.5313 13.8953 22.5534 15.0072C22.5755 16.1191 22.3007 17.2168 21.7573 18.1871C21.2139 19.1574 20.4216 19.9653 19.462 20.5274C18.5024 21.0896 17.4102 21.3856 16.2981 21.3851V21.3853Z" fill="url(#paint5_linear_5_74)"/>
<defs>
<linearGradient id="paint0_linear_5_74" x1="4.56304" y1="24.4325" x2="15.0606" y2="-3.60871" gradientUnits="userSpaceOnUse">
<stop offset="0.06" stop-color="#FF6800"/>
<stop offset="1" stop-color="#FFF100"/>
</linearGradient>
<linearGradient id="paint1_linear_5_74" x1="1.48682" y1="23.2808" x2="11.9843" y2="-4.76045" gradientUnits="userSpaceOnUse">
<stop offset="0.06" stop-color="#FF6800"/>
<stop offset="1" stop-color="#FFF100"/>
</linearGradient>
<linearGradient id="paint2_linear_5_74" x1="-0.949991" y1="22.3687" x2="9.54752" y2="-5.67264" gradientUnits="userSpaceOnUse">
<stop offset="0.06" stop-color="#FF6800"/>
<stop offset="1" stop-color="#FFF100"/>
</linearGradient>
<linearGradient id="paint3_linear_5_74" x1="-0.108827" y1="22.6836" x2="10.3887" y2="-5.35771" gradientUnits="userSpaceOnUse">
<stop offset="0.06" stop-color="#FF6800"/>
<stop offset="1" stop-color="#FFF100"/>
</linearGradient>
<linearGradient id="paint4_linear_5_74" x1="5.77389" y1="24.8858" x2="16.2714" y2="-3.15547" gradientUnits="userSpaceOnUse">
<stop offset="0.06" stop-color="#FF6800"/>
<stop offset="1" stop-color="#FFF100"/>
</linearGradient>
<linearGradient id="paint5_linear_5_74" x1="5.48754" y1="15.1347" x2="22.5487" y2="15.1347" gradientUnits="userSpaceOnUse">
<stop stop-color="#69BBFF"/>
<stop offset="1" stop-color="#9DE0F4"/>
</linearGradient>
</defs>
</svg>
