<svg width="26" height="32" viewBox="0 0 26 32" fill="none" xmlns="http://www.w3.org/2000/svg">
<path d="M24.707 25C24.707 28.721 21.308 31.658 17.45 30.872C15.176 30.408 13.33 28.579 12.847 26.309C12.362 24.034 13.18 21.894 14.708 20.54V5C14.708 2.791 16.499 1 18.708 1C20.917 1 22.708 2.791 22.708 5V20.54C23.937 21.63 24.707 23.23 24.707 25Z" fill="#C9F9FB"/>
<path d="M19.707 22.184V19H17.707V22.184C16.544 22.597 15.707 23.696 15.707 25C15.707 26.657 17.05 28 18.707 28C20.364 28 21.707 26.657 21.707 25C21.707 23.696 20.87 22.597 19.707 22.184Z" fill="#D62144"/>
<path d="M23.707 20.111V5C23.707 2.243 21.464 0 18.707 0C15.95 0 13.707 2.243 13.707 5V20.11C12.049 21.784 11.362 24.146 11.868 26.518C12.432 29.167 14.596 31.311 17.25 31.852C17.732 31.95 18.217 31.998 18.696 31.998C20.307 31.998 21.869 31.453 23.13 30.423C24.768 29.086 25.707 27.109 25.707 25C25.707 23.162 24.983 21.405 23.707 20.111ZM21.864 28.875C20.697 29.829 19.163 30.201 17.649 29.892C15.762 29.508 14.225 27.984 13.824 26.101C13.438 24.288 14.015 22.489 15.37 21.289C15.584 21.099 15.707 20.826 15.707 20.54V5C15.707 3.346 17.053 2 18.707 2C20.361 2 21.707 3.346 21.707 5V20.54C21.707 20.826 21.83 21.099 22.044 21.289C23.101 22.225 23.707 23.578 23.707 25C23.707 26.506 23.035 27.918 21.864 28.875Z" fill="#1798FF"/>
<path d="M13.414 18.293L11.707 16.586V3.414L13.414 1.707L12 0.292999L10.707 1.586L9.414 0.292999L8 1.707L9.707 3.414V7.586L7.707 5.586V3H5.707V5H3.707V7H6.293L8.293 9H3.121L1.414 7.293L0 8.707L1.293 10L0 11.293L1.414 12.707L3.121 11H8.293L6.293 13H3.707V15H5.707V17H7.707V14.414L9.707 12.414V16.586L8 18.293L9.414 19.707L10.707 18.414L12 19.707L13.414 18.293Z" fill="#1798FF"/>
</svg>
