<svg width="24" height="32" viewBox="0 0 24 32" fill="none" xmlns="http://www.w3.org/2000/svg">
<path d="M23 25C23 28.721 19.601 31.658 15.743 30.872C13.469 30.408 11.623 28.579 11.14 26.309C10.655 24.034 11.473 21.894 13.001 20.54V5C13.001 2.791 14.792 1 17.001 1C19.21 1 21.001 2.791 21.001 5V20.54C22.23 21.63 23 23.23 23 25Z" fill="#C9F9FB"/>
<path d="M2 5C3 9 1 10 1 13C1 16.314 3.686 19 7 19C10.314 19 13 16.314 13 13C13 8 7 1 7 1C7.333 3.667 7 6.333 6 9C4.667 6.333 3.333 5 2 5Z" fill="#D62144"/>
<path d="M18 22.184V6H16V22.184C14.837 22.597 14 23.696 14 25C14 26.657 15.343 28 17 28C18.657 28 20 26.657 20 25C20 23.696 19.163 22.597 18 22.184Z" fill="#D62144"/>
<path d="M7 18.156C4.794 18.156 3 16.362 3 14.156C3 13.795 3.189 13.254 3.41 12.627C3.61 12.054 3.839 11.405 4.011 10.661C4.076 10.785 4.143 10.914 4.211 11.051L6.262 15.154L7.873 10.859C8.229 9.91 8.509 8.956 8.713 8C9.945 10.06 11 12.365 11 14.156C11 16.362 9.206 18.156 7 18.156Z" fill="#FFF3AE"/>
<path d="M22 20.111V5C22 2.243 19.757 0 17 0C14.243 0 12 2.243 12 5V6.574C10.234 3.264 7.916 0.532 7.759 0.349C7.473 0.015 7 -0.092 6.595 0.085C6.192 0.264 5.953 0.686 6.008 1.124C6.231 2.911 6.131 4.718 5.711 6.52C4.538 4.828 3.313 4 2 4C1.692 4 1.401 4.142 1.212 4.385C1.023 4.628 0.955 4.944 1.03 5.243C1.556 7.346 1.159 8.436 0.7 9.698C0.372 10.601 0 11.624 0 13C0 16.86 3.14 20 7 20C8.958 20 10.728 19.19 12 17.89V20.11C10.341 21.784 9.656 24.146 10.162 26.518C10.726 29.167 12.889 31.311 15.543 31.852C16.025 31.95 16.51 31.998 16.989 31.998C18.6 31.998 20.162 31.453 21.423 30.423C23.061 29.086 24 27.109 24 25C24 23.162 23.276 21.405 22 20.111ZM7 18C4.243 18 2 15.757 2 13C2 11.976 2.269 11.237 2.58 10.382C2.947 9.374 3.35 8.267 3.27 6.681C3.778 7.181 4.396 8.029 5.106 9.448C5.284 9.803 5.646 10.019 6.053 9.999C6.45 9.978 6.797 9.724 6.937 9.351C7.593 7.601 7.979 5.832 8.09 4.066C9.774 6.45 12 10.14 12 13C12 15.757 9.757 18 7 18ZM20.157 28.875C18.989 29.829 17.457 30.201 15.942 29.892C14.055 29.508 12.518 27.984 12.117 26.101C11.73 24.288 12.308 22.489 13.662 21.289C13.877 21.099 14 20.826 14 20.54V5C14 3.346 15.346 2 17 2C18.654 2 20 3.346 20 5V20.54C20 20.826 20.123 21.099 20.337 21.289C21.394 22.225 22 23.578 22 25C22 26.506 21.328 27.918 20.157 28.875Z" fill="#1A1A1A"/>
</svg>
