<svg width="25" height="25" viewBox="0 0 25 25" fill="none" xmlns="http://www.w3.org/2000/svg">
<path d="M15.2505 15.5948H7.87064C6.46472 15.5948 5.1164 15.0363 4.12227 14.0422C3.12814 13.048 2.56964 11.6997 2.56964 10.2938C2.56964 8.88787 3.12814 7.53954 4.12227 6.54541C5.1164 5.55128 6.46472 4.99279 7.87064 4.99279C8.15474 4.99266 8.43839 5.01525 8.71889 5.06032C9.25185 3.98975 10.039 3.06609 11.0116 2.37015C12.2532 1.48159 13.719 1.01194 15.2505 1.01194C16.9327 1.01281 18.5628 1.59517 19.8648 2.66036C21.1668 3.72556 22.0605 5.20808 22.3945 6.85677C22.7286 8.50546 22.4824 10.2189 21.6977 11.7069C20.913 13.1949 19.6381 14.3658 18.0889 15.0214C17.191 15.4015 16.2256 15.5966 15.2505 15.5948Z" fill="url(#paint0_linear_5_101)"/>
<path d="M7.27612 22.9239C6.68855 22.5846 6.61841 21.7638 7.14005 21.3299L8.55858 20.1493C8.60487 20.1106 8.66191 20.0872 8.72197 20.082C8.78203 20.0769 8.84222 20.0903 8.8944 20.1205C8.94657 20.1506 8.98824 20.196 9.0138 20.2505C9.03935 20.3051 9.04756 20.3661 9.03731 20.4255L8.7245 22.2445C8.6092 22.9134 7.86331 23.2631 7.27612 22.9239Z" fill="url(#paint1_linear_5_101)"/>
<path d="M14.0702 22.9239C13.4826 22.5846 13.4126 21.7638 13.9341 21.3299L15.353 20.1493C15.3993 20.1106 15.4563 20.0872 15.5164 20.082C15.5764 20.0769 15.6366 20.0903 15.6888 20.1205C15.741 20.1506 15.7826 20.196 15.8082 20.2506C15.8338 20.3051 15.842 20.3661 15.8319 20.4255L15.5189 22.2445C15.4036 22.9134 14.6579 23.2631 14.0702 22.9239Z" fill="url(#paint2_linear_5_101)"/>
<path d="M3.87847 19.0369C3.29091 18.6976 3.22076 17.8769 3.7424 17.4429L5.16168 16.2624C5.20801 16.2239 5.26504 16.2005 5.3251 16.1954C5.38515 16.1902 5.44532 16.2037 5.4975 16.2338C5.54967 16.2639 5.59135 16.3093 5.61692 16.3639C5.6425 16.4184 5.65074 16.4794 5.64054 16.5388L5.32698 18.3582C5.21143 19.0265 4.46616 19.3762 3.87847 19.0369Z" fill="url(#paint3_linear_5_101)"/>
<path d="M10.673 19.0369C10.0853 18.6976 10.0153 17.8769 10.5362 17.4429L11.9551 16.2624C12.0014 16.2239 12.0585 16.2005 12.1185 16.1954C12.1786 16.1903 12.2387 16.2037 12.2909 16.2338C12.343 16.264 12.3847 16.3094 12.4102 16.3639C12.4358 16.4184 12.444 16.4795 12.4338 16.5388L12.1214 18.3582C12.0065 19.0265 11.2606 19.3762 10.673 19.0369Z" fill="url(#paint4_linear_5_101)"/>
<path d="M17.4674 19.0369C16.8798 18.6976 16.8097 17.8769 17.3313 17.4429L18.7502 16.2624C18.7966 16.2239 18.8536 16.2005 18.9137 16.1954C18.9737 16.1902 19.0339 16.2037 19.0861 16.2338C19.1382 16.2639 19.1799 16.3093 19.2055 16.3639C19.2311 16.4184 19.2393 16.4794 19.2291 16.5388L18.9159 18.3582C18.8009 19.0265 18.055 19.3762 17.4674 19.0369Z" fill="url(#paint5_linear_5_101)"/>
<defs>
<linearGradient id="paint0_linear_5_101" x1="1.52412" y1="19.8389" x2="21.9463" y2="1.13731" gradientUnits="userSpaceOnUse">
<stop stop-color="#69BBFF"/>
<stop offset="1" stop-color="#9DE0F4"/>
</linearGradient>
<linearGradient id="paint1_linear_5_101" x1="15.9479" y1="9.15299" x2="6.52226" y2="24.0394" gradientUnits="userSpaceOnUse">
<stop stop-color="#69BBFF"/>
<stop offset="1" stop-color="#1798FF"/>
</linearGradient>
<linearGradient id="paint2_linear_5_101" x1="20.798" y1="12.2239" x2="11.3724" y2="27.1103" gradientUnits="userSpaceOnUse">
<stop stop-color="#69BBFF"/>
<stop offset="1" stop-color="#1798FF"/>
</linearGradient>
<linearGradient id="paint3_linear_5_101" x1="11.7662" y1="6.5051" x2="2.34054" y2="21.3917" gradientUnits="userSpaceOnUse">
<stop stop-color="#69BBFF"/>
<stop offset="1" stop-color="#1798FF"/>
</linearGradient>
<linearGradient id="paint4_linear_5_101" x1="16.6162" y1="9.57599" x2="7.19055" y2="24.4626" gradientUnits="userSpaceOnUse">
<stop stop-color="#69BBFF"/>
<stop offset="1" stop-color="#1798FF"/>
</linearGradient>
<linearGradient id="paint5_linear_5_101" x1="21.4663" y1="12.647" x2="12.0407" y2="27.5335" gradientUnits="userSpaceOnUse">
<stop stop-color="#69BBFF"/>
<stop offset="1" stop-color="#1798FF"/>
</linearGradient>
</defs>
</svg>
