<svg width="25" height="25" viewBox="0 0 25 25" fill="none" xmlns="http://www.w3.org/2000/svg">
<path d="M21.4348 16.4981L20.2445 15.8109L21.2292 15.5471C21.4682 15.4831 21.6719 15.3267 21.7956 15.1125C21.9193 14.8982 21.9528 14.6436 21.8888 14.4046C21.8248 14.1656 21.6684 13.9619 21.4541 13.8382C21.2399 13.7145 20.9852 13.681 20.7463 13.745L17.9594 14.4913L14.1489 12.2915L17.9138 10.1179L20.7006 10.8642C20.8194 10.8974 20.9437 10.9068 21.0661 10.8917C21.1886 10.8766 21.3068 10.8374 21.414 10.7763C21.5212 10.7152 21.6152 10.6335 21.6906 10.5358C21.7659 10.4381 21.8212 10.3265 21.8531 10.2073C21.8851 10.0881 21.893 9.96381 21.8766 9.84153C21.8601 9.71926 21.8196 9.60146 21.7573 9.49496C21.695 9.38846 21.6122 9.29537 21.5137 9.22108C21.4152 9.1468 21.303 9.09279 21.1835 9.06219L20.199 8.79863L21.3893 8.11144C21.6018 7.98686 21.7564 7.78328 21.8194 7.54513C21.8823 7.30699 21.8485 7.0536 21.7254 6.84027C21.6022 6.62694 21.3997 6.47099 21.1619 6.40645C20.9242 6.34191 20.6706 6.37402 20.4565 6.49577L19.2662 7.18296L19.5301 6.19826C19.5618 6.07993 19.5699 5.95651 19.5539 5.83506C19.5379 5.71361 19.4981 5.59649 19.4369 5.4904C19.3756 5.38432 19.2941 5.29133 19.1969 5.21676C19.0997 5.14219 18.9888 5.08749 18.8705 5.05578C18.7521 5.02408 18.6287 5.01599 18.5073 5.03198C18.3858 5.04798 18.2687 5.08773 18.1626 5.14899C18.0565 5.21024 17.9635 5.29179 17.889 5.38898C17.8144 5.48617 17.7597 5.59709 17.728 5.71542L16.9817 8.50211L13.2675 10.6468V6.76082L15.3073 4.72102C15.394 4.63439 15.4627 4.53155 15.5096 4.41837C15.5564 4.30519 15.5806 4.18389 15.5806 4.06138C15.5806 3.93887 15.5564 3.81757 15.5096 3.70439C15.4627 3.5912 15.394 3.48836 15.3073 3.40174C15.2207 3.31511 15.1179 3.2464 15.0047 3.19952C14.8915 3.15264 14.7702 3.12851 14.6477 3.12851C14.5252 3.12851 14.4039 3.15264 14.2907 3.19952C14.1775 3.2464 14.0747 3.31511 13.9881 3.40174L13.2667 4.12313V2.74788C13.2667 2.50048 13.1684 2.26321 12.9934 2.08827C12.8185 1.91333 12.5812 1.81505 12.3338 1.81505C12.0864 1.81505 11.8492 1.91333 11.6742 2.08827C11.4993 2.26321 11.401 2.50048 11.401 2.74788V4.12239L10.6796 3.40099C10.5937 3.31099 10.4907 3.23907 10.3766 3.18947C10.2625 3.13987 10.1397 3.11359 10.0153 3.11217C9.89091 3.11076 9.76749 3.13424 9.65231 3.18123C9.53713 3.22822 9.43251 3.29778 9.3446 3.3858C9.2567 3.47383 9.1873 3.57855 9.14047 3.69379C9.09364 3.80904 9.07033 3.93249 9.07193 4.05688C9.07352 4.18127 9.09997 4.30409 9.14973 4.4181C9.1995 4.53211 9.27156 4.63502 9.36169 4.72077L11.4015 6.76057V10.7056L8.0184 8.75286L7.27213 5.96604C7.20543 5.73013 7.04854 5.52997 6.83539 5.40884C6.62225 5.28771 6.36999 5.25536 6.13318 5.31878C5.89636 5.3822 5.69404 5.53629 5.56996 5.74773C5.44588 5.95917 5.41002 6.21096 5.47014 6.44863L5.73383 7.43333L4.54353 6.74602C4.32926 6.62232 4.07463 6.5888 3.83565 6.65284C3.59667 6.71688 3.39291 6.87323 3.26921 7.0875C3.14551 7.30177 3.11199 7.5564 3.17603 7.79538C3.24007 8.03436 3.39642 8.23811 3.61069 8.36181L4.80099 9.049L3.81629 9.31281C3.69796 9.34451 3.58703 9.39921 3.48985 9.47379C3.39266 9.54836 3.31111 9.64134 3.24985 9.74743C3.1886 9.85352 3.14884 9.97063 3.13285 10.0921C3.11686 10.2135 3.12495 10.337 3.15665 10.4553C3.18835 10.5736 3.24305 10.6845 3.31762 10.7817C3.3922 10.8789 3.48518 10.9605 3.59127 11.0217C3.69736 11.083 3.81447 11.1227 3.93593 11.1387C4.05738 11.1547 4.1808 11.1466 4.29912 11.1149L7.08594 10.3687L10.4175 12.2915L7.04042 14.2413L4.25373 13.495C4.01475 13.431 3.76013 13.4645 3.54587 13.5882C3.33162 13.7119 3.17528 13.9157 3.11125 14.1547C3.04722 14.3936 3.08075 14.6483 3.20446 14.8625C3.32816 15.0768 3.53191 15.2331 3.77089 15.2971L4.75559 15.5609L3.56529 16.2481C3.35103 16.3718 3.19467 16.5756 3.13063 16.8146C3.06659 17.0535 3.10011 17.3082 3.22381 17.5224C3.34751 17.7367 3.55127 17.8931 3.79025 17.9571C4.02923 18.0211 4.28386 17.9876 4.49813 17.8639L5.68843 17.1766L5.42462 18.1613C5.3903 18.2804 5.38007 18.4052 5.39451 18.5283C5.40896 18.6514 5.44781 18.7704 5.50878 18.8784C5.56975 18.9863 5.65162 19.081 5.74961 19.1569C5.84759 19.2329 5.95973 19.2885 6.07947 19.3206C6.19921 19.3527 6.32414 19.3606 6.44697 19.3439C6.5698 19.3271 6.68806 19.2861 6.79484 19.2231C6.90162 19.1601 6.99478 19.0765 7.06887 18.9771C7.14296 18.8778 7.1965 18.7646 7.22636 18.6443L7.97263 15.8575L11.4012 13.878V18.2396L9.36144 20.2794C9.27481 20.366 9.2061 20.4688 9.15922 20.582C9.11234 20.6952 9.08821 20.8165 9.08821 20.939C9.08821 21.0615 9.11234 21.1828 9.15922 21.296C9.2061 21.4092 9.27481 21.512 9.36144 21.5986C9.44806 21.6853 9.5509 21.754 9.66408 21.8009C9.77726 21.8477 9.89857 21.8719 10.0211 21.8719C10.1436 21.8719 10.2649 21.8477 10.3781 21.8009C10.4913 21.754 10.5941 21.6853 10.6807 21.5986L11.4021 20.8772V22.2517C11.4021 22.4991 11.5004 22.7364 11.6753 22.9114C11.8503 23.0863 12.0875 23.1846 12.3349 23.1846C12.5823 23.1846 12.8196 23.0863 12.9946 22.9114C13.1695 22.7364 13.2678 22.4991 13.2678 22.2517V20.8776L13.9892 21.599C14.0758 21.6856 14.1786 21.7543 14.2918 21.8012C14.405 21.8481 14.5263 21.8722 14.6488 21.8722C14.7713 21.8722 14.8926 21.8481 15.0058 21.8012C15.119 21.7543 15.2218 21.6856 15.3085 21.599C15.3951 21.5124 15.4638 21.4095 15.5107 21.2964C15.5576 21.1832 15.5817 21.0619 15.5817 20.9394C15.5817 20.8169 15.5576 20.6956 15.5107 20.5824C15.4638 20.4692 15.3951 20.3664 15.3085 20.2797L13.2687 18.2399V13.9371L17.0274 16.107L17.7736 18.893C17.8053 19.0114 17.86 19.1223 17.9346 19.2195C18.0092 19.3167 18.1022 19.3982 18.2082 19.4595C18.3143 19.5207 18.4315 19.5605 18.5529 19.5765C18.6744 19.5925 18.7978 19.5844 18.9161 19.5527C19.0344 19.521 19.1454 19.4663 19.2425 19.3917C19.3397 19.3171 19.4213 19.2241 19.4825 19.1181C19.5438 19.012 19.5835 18.8948 19.5995 18.7734C19.6155 18.6519 19.6074 18.5285 19.5757 18.4102L19.3118 17.4255L20.5021 18.1127C20.7162 18.2344 20.9699 18.2665 21.2076 18.202C21.4453 18.1375 21.6479 17.9815 21.771 17.7682C21.8942 17.5549 21.928 17.3015 21.865 17.0633C21.8021 16.8252 21.6474 16.6216 21.4349 16.497L21.4348 16.4981Z" fill="url(#paint0_linear_5_72)"/>
<defs>
<linearGradient id="paint0_linear_5_72" x1="24.3445" y1="-7.80224" x2="-34.1149" y2="92.2489" gradientUnits="userSpaceOnUse">
<stop stop-color="#69BBFF"/>
<stop offset="1" stop-color="#1798FF"/>
</linearGradient>
</defs>
</svg>
