<svg width="25" height="25" viewBox="0 0 25 25" fill="none" xmlns="http://www.w3.org/2000/svg">
<path d="M12.5 17.2379C11.3284 17.237 10.1988 16.8009 9.33055 16.0142C8.46226 15.2275 7.91712 14.1464 7.80086 12.9805C7.68461 11.8147 8.00553 10.6472 8.70138 9.70455C9.39723 8.76192 10.4184 8.11135 11.5668 7.87904C12.7152 7.64673 13.9089 7.84924 14.9164 8.44729C15.9239 9.04535 16.6734 9.9963 17.0194 11.1157C17.3655 12.2351 17.2834 13.4431 16.7891 14.5054C16.2949 15.5677 15.4237 16.4085 14.3445 16.8648C13.7611 17.112 13.1337 17.239 12.5 17.2379Z" fill="url(#paint0_linear_5_81)"/>
<path d="M12.5 6.21182C12.2526 6.21182 12.0153 6.11354 11.8404 5.9386C11.6654 5.76366 11.5672 5.52639 11.5672 5.27898V3.12189C11.5672 2.87449 11.6654 2.63722 11.8404 2.46228C12.0153 2.28734 12.2526 2.18906 12.5 2.18906C12.7474 2.18906 12.9847 2.28734 13.1596 2.46228C13.3346 2.63722 13.4328 2.87449 13.4328 3.12189V5.27898C13.4328 5.52639 13.3346 5.76366 13.1596 5.9386C12.9847 6.11354 12.7474 6.21182 12.5 6.21182Z" fill="url(#paint1_linear_5_81)"/>
<path d="M7.3939 8.32674C7.27142 8.32678 7.15013 8.30262 7.03701 8.25567C6.92389 8.20871 6.82115 8.13987 6.73469 8.05311L5.20907 6.52824C5.03721 6.35267 4.94155 6.11639 4.94285 5.87072C4.94416 5.62504 5.04234 5.38979 5.21606 5.21607C5.38979 5.04235 5.62503 4.94417 5.87071 4.94286C6.11639 4.94155 6.35266 5.03722 6.52823 5.20908L8.0536 6.73433C8.1839 6.86479 8.27261 7.03093 8.30853 7.21177C8.34446 7.39262 8.32599 7.58005 8.25545 7.7504C8.18491 7.92076 8.06548 8.06639 7.91222 8.1689C7.75897 8.27141 7.57878 8.32621 7.3944 8.32637L7.3939 8.32674Z" fill="url(#paint2_linear_5_81)"/>
<path d="M5.27898 13.4328H3.12189C2.87449 13.4328 2.63722 13.3346 2.46228 13.1596C2.28734 12.9847 2.18906 12.7474 2.18906 12.5C2.18906 12.2526 2.28734 12.0153 2.46228 11.8404C2.63722 11.6654 2.87449 11.5672 3.12189 11.5672H5.27898C5.52639 11.5672 5.76366 11.6654 5.9386 11.8404C6.11354 12.0153 6.21182 12.2526 6.21182 12.5C6.21182 12.7474 6.11354 12.9847 5.9386 13.1596C5.76366 13.3346 5.52639 13.4328 5.27898 13.4328Z" fill="url(#paint3_linear_5_81)"/>
<path d="M5.86866 20.0642C5.68428 20.064 5.50409 20.0092 5.35083 19.9067C5.19758 19.8042 5.07814 19.6586 5.00761 19.4882C4.93707 19.3179 4.9186 19.1304 4.95453 18.9496C4.99045 18.7687 5.07916 18.6026 5.20946 18.4721L6.73471 16.9468C6.90965 16.7718 7.14693 16.6735 7.39435 16.6735C7.64176 16.6735 7.87904 16.7718 8.05398 16.9468C8.22893 17.1217 8.32722 17.359 8.32722 17.6064C8.32722 17.8538 8.22893 18.0911 8.05398 18.266L6.52824 19.7909C6.44173 19.8777 6.33892 19.9465 6.22573 19.9934C6.11253 20.0403 5.99119 20.0644 5.86866 20.0642Z" fill="url(#paint4_linear_5_81)"/>
<path d="M12.5 22.8109C12.2526 22.8109 12.0153 22.7127 11.8404 22.5377C11.6654 22.3628 11.5672 22.1255 11.5672 21.8781V19.721C11.5672 19.4736 11.6654 19.2363 11.8404 19.0614C12.0153 18.8865 12.2526 18.7882 12.5 18.7882C12.7474 18.7882 12.9847 18.8865 13.1596 19.0614C13.3346 19.2363 13.4328 19.4736 13.4328 19.721V21.8781C13.4328 22.1255 13.3346 22.3628 13.1596 22.5377C12.9847 22.7127 12.7474 22.8109 12.5 22.8109Z" fill="url(#paint5_linear_5_81)"/>
<path d="M19.1313 20.0642C19.0089 20.0642 18.8876 20.0401 18.7744 19.9932C18.6613 19.9462 18.5586 19.8773 18.4721 19.7905L16.9465 18.2657C16.7728 18.0905 16.6756 17.8536 16.6761 17.6069C16.6767 17.3602 16.7749 17.1238 16.9493 16.9493C17.1238 16.7749 17.3602 16.6766 17.6069 16.6761C17.8536 16.6755 18.0905 16.7727 18.2657 16.9464L19.7909 18.4718C19.9212 18.6022 20.0099 18.7684 20.0459 18.9492C20.0818 19.1301 20.0633 19.3175 19.9928 19.4878C19.9222 19.6582 19.8028 19.8038 19.6495 19.9063C19.4963 20.0088 19.3161 20.0636 19.1317 20.0638L19.1313 20.0642Z" fill="url(#paint6_linear_5_81)"/>
<path d="M21.8781 13.4328H19.721C19.4736 13.4328 19.2363 13.3346 19.0614 13.1596C18.8865 12.9847 18.7882 12.7474 18.7882 12.5C18.7882 12.2526 18.8865 12.0153 19.0614 11.8404C19.2363 11.6654 19.4736 11.5672 19.721 11.5672H21.8781C22.1255 11.5672 22.3628 11.6654 22.5377 11.8404C22.7127 12.0153 22.8109 12.2526 22.8109 12.5C22.8109 12.7474 22.7127 12.9847 22.5377 13.1596C22.3628 13.3346 22.1255 13.4328 21.8781 13.4328Z" fill="url(#paint7_linear_5_81)"/>
<path d="M17.6061 8.32674C17.4217 8.32658 17.2415 8.27178 17.0883 8.16927C16.935 8.06676 16.8156 7.92113 16.745 7.75078C16.6745 7.58043 16.656 7.39299 16.692 7.21215C16.7279 7.0313 16.8166 6.86516 16.9469 6.7347L18.4721 5.20945C18.6477 5.03759 18.884 4.94193 19.1297 4.94324C19.3753 4.94454 19.6106 5.04272 19.7843 5.21644C19.958 5.39017 20.0562 5.62541 20.0575 5.87109C20.0588 6.11677 19.9632 6.35305 19.7913 6.52861L18.2657 8.05361C18.1791 8.14034 18.0763 8.20911 17.9631 8.25599C17.8499 8.30286 17.7286 8.32691 17.6061 8.32674Z" fill="url(#paint8_linear_5_81)"/>
<defs>
<linearGradient id="paint0_linear_5_81" x1="1.43372" y1="32.6627" x2="23.1637" y2="-6.92898" gradientUnits="userSpaceOnUse">
<stop offset="0.06" stop-color="#FF6800"/>
<stop offset="1" stop-color="#FFF100"/>
</linearGradient>
<linearGradient id="paint1_linear_5_81" x1="-2.06704" y1="30.7414" x2="19.6629" y2="-8.85037" gradientUnits="userSpaceOnUse">
<stop offset="0.06" stop-color="#FF6800"/>
<stop offset="1" stop-color="#FFF100"/>
</linearGradient>
<linearGradient id="paint2_linear_5_81" x1="-5.55187" y1="28.8287" x2="16.1781" y2="-10.7631" gradientUnits="userSpaceOnUse">
<stop offset="0.06" stop-color="#FF6800"/>
<stop offset="1" stop-color="#FFF100"/>
</linearGradient>
<linearGradient id="paint3_linear_5_81" x1="-4.94453" y1="29.1621" x2="16.7854" y2="-10.4297" gradientUnits="userSpaceOnUse">
<stop offset="0.06" stop-color="#FF6800"/>
<stop offset="1" stop-color="#FFF100"/>
</linearGradient>
<linearGradient id="paint4_linear_5_81" x1="-0.601115" y1="31.546" x2="21.1289" y2="-8.04577" gradientUnits="userSpaceOnUse">
<stop offset="0.06" stop-color="#FF6800"/>
<stop offset="1" stop-color="#FFF100"/>
</linearGradient>
<linearGradient id="paint5_linear_5_81" x1="4.93433" y1="34.5841" x2="26.6643" y2="-5.00772" gradientUnits="userSpaceOnUse">
<stop offset="0.06" stop-color="#FF6800"/>
<stop offset="1" stop-color="#FFF100"/>
</linearGradient>
<linearGradient id="paint6_linear_5_81" x1="8.41915" y1="36.4968" x2="30.1491" y2="-3.09502" gradientUnits="userSpaceOnUse">
<stop offset="0.06" stop-color="#FF6800"/>
<stop offset="1" stop-color="#FFF100"/>
</linearGradient>
<linearGradient id="paint7_linear_5_81" x1="7.81193" y1="36.1634" x2="29.5419" y2="-3.42836" gradientUnits="userSpaceOnUse">
<stop offset="0.06" stop-color="#FF6800"/>
<stop offset="1" stop-color="#FFF100"/>
</linearGradient>
<linearGradient id="paint8_linear_5_81" x1="3.4684" y1="33.7795" x2="25.1984" y2="-5.81231" gradientUnits="userSpaceOnUse">
<stop offset="0.06" stop-color="#FF6800"/>
<stop offset="1" stop-color="#FFF100"/>
</linearGradient>
</defs>
</svg>
