<svg width="70" height="70" viewBox="0 0 70 70" fill="none" xmlns="http://www.w3.org/2000/svg">
<path d="M32.0305 69.9999C30.7429 70.0009 29.4696 69.6539 28.2932 68.9817C27.1169 68.3094 26.0638 67.3269 25.2025 66.0979C24.615 65.2567 24.3118 64.1503 24.3595 63.022C24.4073 61.8937 24.8022 60.836 25.4573 60.0816C26.1125 59.3271 26.9741 58.9378 27.8528 58.9991C28.7315 59.0605 29.5552 59.5676 30.1428 60.4088C30.3814 60.7472 30.6728 61.0173 30.998 61.2017C31.3232 61.3861 31.675 61.4806 32.0305 61.479C33.405 61.479 34.523 60.0952 34.523 58.395C34.523 56.6948 33.405 55.311 32.0305 55.311H3.31884C2.43886 55.311 1.59491 54.8621 0.97267 54.0631C0.350427 53.2641 0.000854492 52.1805 0.000854492 51.0505C0.000854492 49.9206 0.350427 48.8369 0.97267 48.0379C1.59491 47.2389 2.43886 46.79 3.31884 46.79H32.0305C37.0641 46.79 41.1589 51.9963 41.1589 58.395C41.1589 64.7936 37.0641 69.9999 32.0305 69.9999Z" fill="url(#paint0_linear_19_329)"/>
<path d="M60.8716 69.9999C59.584 70.0009 58.3106 69.6539 57.1343 68.9817C55.9579 68.3094 54.9049 67.3269 54.0436 66.0979C53.456 65.2567 53.1528 64.1503 53.2006 63.022C53.2484 61.8937 53.6433 60.836 54.2984 60.0816C54.9535 59.3271 55.8152 58.9378 56.6939 58.9991C57.5726 59.0605 58.3963 59.5676 58.9838 60.4088C59.2225 60.7472 59.5138 61.0173 59.8391 61.2017C60.1643 61.3861 60.5161 61.4806 60.8716 61.479C62.2461 61.479 63.364 60.0952 63.364 58.395C63.364 56.6948 62.2461 55.311 60.8716 55.311H45.4058C44.5258 55.311 43.6818 54.8621 43.0596 54.0631C42.4373 53.2641 42.0878 52.1805 42.0878 51.0505C42.0878 49.9206 42.4373 48.8369 43.0596 48.0379C43.6818 47.2389 44.5258 46.79 45.4058 46.79H60.8716C65.9052 46.79 70 51.9963 70 58.395C70 64.7936 65.9052 69.9999 60.8716 69.9999Z" fill="url(#paint1_linear_19_329)"/>
<path d="M51.8822 38.4652H19.4442C18.5642 38.4652 17.7203 38.0163 17.098 37.2173C16.4758 36.4183 16.1262 35.3347 16.1262 34.2047C16.1262 33.0748 16.4758 31.9911 17.098 31.1921C17.7203 30.3931 18.5642 29.9443 19.4442 29.9443H51.8822C52.2003 29.9498 52.5161 29.8741 52.8113 29.7217C53.1064 29.5692 53.375 29.3429 53.6015 29.056C53.828 28.7691 54.0079 28.4273 54.1306 28.0504C54.2534 27.6735 54.3166 27.2691 54.3166 26.8605C54.3166 26.452 54.2534 26.0476 54.1306 25.6707C54.0079 25.2938 53.828 24.952 53.6015 24.6651C53.375 24.3782 53.1064 24.1519 52.8113 23.9994C52.5161 23.8469 52.2003 23.7713 51.8822 23.7768C51.541 23.7745 51.2035 23.8666 50.8925 24.0469C50.5816 24.2271 50.3046 24.4913 50.0803 24.8215C49.7926 25.2438 49.4427 25.589 49.0508 25.8373C48.6589 26.0855 48.2327 26.2319 47.7966 26.268C47.3605 26.3042 46.9232 26.2293 46.5097 26.0478C46.0962 25.8663 45.7147 25.5817 45.3871 25.2104C45.0595 24.839 44.7922 24.3882 44.6007 23.8839C44.4091 23.3795 44.2971 22.8316 44.2709 22.2715C44.2447 21.7113 44.305 21.1501 44.4482 20.62C44.5915 20.0899 44.8148 19.6013 45.1055 19.1823C45.9539 17.9486 46.9968 16.9605 48.1651 16.2835C49.3334 15.6066 50.6004 15.2563 51.8822 15.2559C56.8658 15.2559 60.9199 20.4616 60.9199 26.8602C60.9199 33.2589 56.8654 38.4652 51.8822 38.4652Z" fill="url(#paint2_linear_19_329)"/>
<path d="M31.5138 23.2099H3.31799C2.438 23.2099 1.59406 22.761 0.971816 21.9621C0.349573 21.1631 0 20.0794 0 18.9494C0 17.8195 0.349573 16.7358 0.971816 15.9368C1.59406 15.1378 2.438 14.689 3.31799 14.689H31.5138C32.1508 14.689 32.7617 14.364 33.2121 13.7857C33.6625 13.2073 33.9156 12.4229 33.9156 11.605C33.9156 10.787 33.6625 10.0026 33.2121 9.42423C32.7617 8.84587 32.1508 8.52094 31.5138 8.52094C31.1726 8.51866 30.835 8.61084 30.5241 8.79121C30.2131 8.97159 29.9361 9.23592 29.7119 9.56618C29.4236 9.98569 29.0737 10.3282 28.6822 10.574C28.2908 10.8199 27.8655 10.9644 27.4306 10.9992C26.9956 11.034 26.5596 10.9585 26.1474 10.7769C25.7353 10.5954 25.355 10.3114 25.0282 9.9411C24.7015 9.57083 24.4348 9.12155 24.2433 8.61893C24.0519 8.1163 23.9393 7.57017 23.9122 7.01171C23.8851 6.45325 23.9439 5.8934 24.0853 5.36413C24.2267 4.83486 24.4479 4.34653 24.7363 3.92702C25.5847 2.69312 26.6278 1.70489 27.7962 1.02787C28.9647 0.35084 30.2319 0.000474524 31.5138 0C36.497 0 40.5516 5.2063 40.5516 11.605C40.5516 18.0036 36.497 23.2099 31.5138 23.2099Z" fill="url(#paint3_linear_19_329)"/>
<path d="M9.42928 38.4655H3.31799C2.438 38.4655 1.59406 38.0167 0.971816 37.2177C0.349573 36.4187 0 35.335 0 34.2051C0 33.0751 0.349573 31.9914 0.971816 31.1924C1.59406 30.3934 2.438 29.9446 3.31799 29.9446H9.42928C10.3093 29.9446 11.1532 30.3934 11.7755 31.1924C12.3977 31.9914 12.7473 33.0751 12.7473 34.2051C12.7473 35.335 12.3977 36.4187 11.7755 37.2177C11.1532 38.0167 10.3093 38.4655 9.42928 38.4655Z" fill="url(#paint4_linear_19_329)"/>
<defs>
<linearGradient id="paint0_linear_19_329" x1="75.9912" y1="-62.5058" x2="-8.05977" y2="46.2642" gradientUnits="userSpaceOnUse">
<stop stop-color="#69BBFF"/>
<stop offset="1" stop-color="#1798FF"/>
</linearGradient>
<linearGradient id="paint1_linear_19_329" x1="102.027" y1="-42.3873" x2="17.9756" y2="66.3827" gradientUnits="userSpaceOnUse">
<stop stop-color="#69BBFF"/>
<stop offset="1" stop-color="#1798FF"/>
</linearGradient>
<linearGradient id="paint2_linear_19_329" x1="80.8456" y1="-58.7542" x2="-3.2054" y2="50.0158" gradientUnits="userSpaceOnUse">
<stop stop-color="#69BBFF"/>
<stop offset="1" stop-color="#1798FF"/>
</linearGradient>
<linearGradient id="paint3_linear_19_329" x1="62.2008" y1="-73.162" x2="-21.8502" y2="35.6081" gradientUnits="userSpaceOnUse">
<stop stop-color="#69BBFF"/>
<stop offset="1" stop-color="#1798FF"/>
</linearGradient>
<linearGradient id="paint4_linear_19_329" x1="58.1573" y1="-76.286" x2="-25.8937" y2="32.484" gradientUnits="userSpaceOnUse">
<stop stop-color="#69BBFF"/>
<stop offset="1" stop-color="#1798FF"/>
</linearGradient>
</defs>
</svg>
