<svg width="25" height="25" viewBox="0 0 25 25" fill="none" xmlns="http://www.w3.org/2000/svg">
<path d="M14.5833 0C8.83039 0 4.16667 4.66372 4.16667 10.4167C4.16667 12.9169 5.08385 15.1805 6.55212 16.9758L0 23.527L1.47298 25L8.02523 18.4486C9.82043 19.9164 12.0836 20.8333 14.5833 20.8333C20.3363 20.8333 25 16.1696 25 10.4167C25 4.66372 20.3363 0 14.5833 0ZM14.5833 18.75C9.98828 18.75 6.25 15.0117 6.25 10.4167C6.25 5.82161 9.98828 2.08333 14.5833 2.08333C19.1784 2.08333 22.9167 5.82161 22.9167 10.4167C22.9167 15.0117 19.1784 18.75 14.5833 18.75Z" fill="white"/>
</svg>
